<svg version="1.1" xmlns="http://www.w3.org/2000/svg" xmlns:xlink="http://www.w3.org/1999/xlink" width="19.00722" height="13.59532" viewBox="0,0,19.00722,13.59532"><g transform="translate(-348.96256,-109.4568)"><g data-paper-data="{&quot;isPaintingLayer&quot;:true}" fill-rule="nonzero" stroke-width="0.5" stroke-linecap="round" stroke-linejoin="miter" stroke-miterlimit="10" stroke-dasharray="" stroke-dashoffset="0" style="mix-blend-mode: normal"><path d="M349.36331,119.72072l-0.12317,-6.40478l3.32556,-2.46337l12.07054,-0.12317l2.83289,2.46337l0.24633,6.28161l-3.32556,3.07922l-12.07054,0.24634z" fill="#8d8d8d" stroke="#8d8d8d"/><path d="M358.02574,115.45967l-1.35135,-2.29349l-3.45344,0.4587l1.65165,2.86686l-0.17563,0.14976l-1.76175,3.07922l3.68367,0.49268l1.44144,-2.46337l0.2554,-0.04992l1.48648,2.46337l3.79878,-0.49268l-1.81681,-3.07922l-0.06491,-0.04992l1.8168,-2.86686l-3.79877,-0.4587l-1.48647,2.29349" fill="#ff4242" stroke="#ff5a6a"/><path d="M349.22291,112.17742l3.16238,-2.47061h12.55072l2.56944,2.27296v0.88942l-2.76709,-2.17414h-12.25425l-3.16239,2.66827z" fill="#cecece" stroke="#cecece"/></g></g></svg>